<svg id="svg" version="1.1"      xmlns="http://www.w3.org/2000/svg" xmlns:xlink="http://www.w3.org/1999/xlink" width="400" height="225" viewBox="0, 0, 400,225"><g id="svgg"><path id="path0" d="M166.863 27.068 C 165.655 27.308,163.981 28.281,156.331 33.192 C 155.340 33.828,152.877 35.356,150.857 36.589 C 144.320 40.577,144.422 41.027,153.067 46.332 C 155.853 48.042,159.094 50.065,160.270 50.829 C 168.610 56.246,168.673 56.243,178.953 49.788 C 181.739 48.039,184.805 46.124,185.768 45.533 C 193.088 41.033,193.105 40.548,186.104 36.235 C 183.842 34.842,181.182 33.179,180.191 32.539 C 172.146 27.339,171.398 26.964,169.001 26.922 C 168.294 26.909,167.331 26.975,166.863 27.068 M193.922 45.201 C 193.427 45.434,192.009 46.281,190.771 47.084 C 189.533 47.887,187.406 49.225,186.044 50.058 C 171.889 58.715,171.943 58.621,178.728 62.775 C 180.400 63.798,182.679 65.229,183.793 65.955 C 184.907 66.681,186.933 67.946,188.295 68.766 C 189.657 69.585,191.506 70.714,192.404 71.274 C 194.279 72.442,195.904 72.790,198.057 72.486 C 199.588 72.270,199.845 72.148,203.151 70.071 C 204.513 69.216,205.779 68.448,205.965 68.364 C 206.151 68.281,207.265 67.588,208.441 66.825 C 209.617 66.061,212.099 64.501,213.956 63.357 C 220.174 59.526,220.660 58.355,217.003 56.005 C 216.194 55.485,214.569 54.436,213.393 53.674 C 212.217 52.913,211.002 52.159,210.692 51.999 C 210.383 51.839,209.623 51.381,209.004 50.980 C 208.385 50.579,205.954 49.053,203.602 47.588 L 199.325 44.923 197.074 44.851 C 195.237 44.792,194.657 44.857,193.922 45.201 M170.497 65.347 L 169.837 65.915 169.837 77.808 L 169.837 89.702 170.570 91.200 C 171.530 93.164,172.979 94.452,176.505 96.482 C 178.037 97.364,181.823 99.552,184.918 101.345 C 192.061 105.482,192.397 105.597,193.605 104.311 L 194.147 103.734 194.147 91.878 L 194.147 80.023 193.561 78.774 C 192.460 76.430,191.069 75.277,185.481 72.080 C 182.696 70.486,178.796 68.239,176.815 67.085 C 172.631 64.650,171.628 64.374,170.497 65.347 M171.038 99.746 C 169.743 100.226,169.724 100.412,169.724 112.645 C 169.724 125.356,169.692 125.103,171.608 127.592 C 172.797 129.138,172.687 129.064,181.654 134.278 C 195.365 142.250,194.327 142.948,194.217 125.825 L 194.147 114.902 193.405 113.395 C 192.620 111.800,191.077 110.073,189.902 109.473 C 189.513 109.275,187.524 108.129,185.481 106.928 C 173.811 100.067,172.258 99.295,171.038 99.746 M68.993 152.442 C 68.925 152.724,68.897 162.527,68.931 174.226 L 68.993 195.498 72.369 195.498 L 75.746 195.498 75.746 173.776 L 75.746 152.054 72.431 151.992 C 69.146 151.930,69.116 151.934,68.993 152.442 M164.148 152.206 C 163.713 152.640,163.749 195.229,164.184 195.590 C 164.395 195.765,165.508 195.828,167.617 195.786 L 170.737 195.723 170.811 195.048 C 170.925 193.999,171.192 193.914,172.129 194.630 C 175.983 197.572,181.682 196.590,184.275 192.536 C 186.618 188.875,186.752 171.090,184.464 167.467 C 181.735 163.144,175.266 162.025,171.804 165.277 C 170.929 166.099,170.860 165.646,170.797 158.687 L 170.737 152.054 167.580 151.992 C 165.316 151.947,164.346 152.008,164.148 152.206 M187.829 152.239 C 187.766 152.403,188.315 153.948,189.049 155.672 C 189.784 157.396,191.045 160.377,191.853 162.296 C 192.661 164.215,193.642 166.494,194.034 167.361 C 194.785 169.022,194.919 169.324,196.036 171.900 C 196.951 174.010,197.057 173.497,194.503 179.350 C 191.169 186.993,187.732 195.137,187.732 195.394 C 187.732 195.982,195.009 195.542,195.319 194.935 C 195.478 194.626,196.576 191.891,197.761 188.858 C 198.946 185.824,200.061 183.024,200.239 182.633 C 200.417 182.243,200.563 181.804,200.563 181.658 C 200.563 181.512,200.689 181.434,200.844 181.484 C 201.165 181.590,201.667 182.783,204.185 189.420 C 206.536 195.620,206.529 195.606,207.143 195.633 C 208.340 195.687,213.739 195.565,213.821 195.482 C 213.908 195.396,209.769 185.563,206.277 177.558 C 204.737 174.028,204.656 173.761,204.942 173.169 C 206.582 169.773,213.843 152.489,213.741 152.223 C 213.661 152.015,212.752 151.941,210.254 151.941 C 206.320 151.941,206.641 151.744,205.508 154.850 C 204.500 157.612,202.605 162.539,202.255 163.309 C 202.086 163.680,201.878 164.264,201.793 164.605 C 201.708 164.947,201.548 165.282,201.438 165.350 C 201.328 165.418,201.238 165.671,201.238 165.911 C 201.238 166.752,200.641 166.337,200.167 165.166 C 198.699 161.545,195.385 153.022,195.385 152.868 C 195.385 151.968,188.163 151.368,187.829 152.239 M293.462 156.050 C 293.140 156.290,293.076 156.877,293.025 160.045 L 292.966 163.759 291.578 163.826 C 289.759 163.913,289.670 164.049,289.749 166.606 L 289.814 168.711 291.390 168.824 L 292.966 168.936 293.083 179.966 C 293.205 191.414,293.222 191.616,294.185 193.134 C 295.321 194.928,298.058 195.842,302.267 195.832 C 304.412 195.827,304.358 195.913,304.284 192.669 L 304.221 189.876 303.014 189.703 C 299.812 189.243,299.831 189.314,299.831 178.025 L 299.831 168.824 302.047 168.824 C 304.860 168.824,305.008 168.698,305.008 166.317 C 305.008 163.965,304.930 163.896,302.195 163.821 L 299.944 163.759 299.884 160.045 C 299.812 155.511,300.017 155.768,296.455 155.768 C 294.714 155.768,293.713 155.862,293.462 156.050 M93.943 163.656 C 92.741 163.894,91.477 164.554,90.516 165.446 C 89.644 166.254,89.423 166.150,89.323 164.885 L 89.252 163.984 86.005 163.922 C 83.558 163.874,82.713 163.930,82.576 164.147 C 82.262 164.641,82.341 195.250,82.656 195.566 C 82.960 195.870,88.610 195.950,89.071 195.657 C 89.274 195.529,89.358 192.620,89.409 184.012 L 89.477 172.538 90.039 171.534 C 91.681 168.604,95.378 168.757,96.713 171.809 C 97.098 172.690,97.135 173.643,97.196 184.193 L 97.262 195.622 100.685 195.560 L 104.108 195.498 104.172 184.243 C 104.214 176.959,104.149 172.313,103.988 171.075 C 103.246 165.366,99.455 162.566,93.943 163.656 M117.419 163.681 C 113.562 164.419,110.615 167.180,109.745 170.869 C 109.257 172.939,109.252 186.746,109.738 188.808 C 112.082 198.750,129.102 198.825,131.205 188.903 C 132.010 185.105,131.708 184.769,127.578 184.856 L 124.593 184.918 124.427 186.253 C 123.909 190.403,119.149 191.696,117.117 188.239 L 116.488 187.169 116.488 179.854 C 116.488 171.686,116.529 171.443,118.087 170.254 C 120.633 168.312,124.032 170.007,124.455 173.430 L 124.596 174.564 127.821 174.545 C 131.619 174.524,131.537 174.577,131.347 172.251 C 130.833 165.977,124.806 162.268,117.419 163.681 M228.100 163.838 C 227.460 164.059,226.580 164.512,226.145 164.844 C 225.135 165.614,225.012 165.603,224.751 164.716 L 224.536 163.984 221.272 163.984 L 218.008 163.984 217.950 185.763 L 217.893 207.541 221.247 207.541 C 225.316 207.541,224.873 208.408,224.873 200.432 C 224.873 193.443,224.835 193.610,226.201 194.692 C 230.191 197.852,236.988 196.008,238.774 191.280 C 239.828 188.492,240.148 172.692,239.215 169.535 C 237.792 164.722,232.859 162.193,228.100 163.838 M252.343 163.668 C 248.996 164.324,246.190 166.944,245.106 170.428 C 244.461 172.502,244.466 186.866,245.113 189.130 C 246.427 193.722,250.254 196.203,255.937 196.145 C 261.781 196.085,265.507 193.261,266.367 188.240 C 266.685 186.381,266.700 186.389,262.876 186.385 L 259.799 186.382 259.532 187.189 C 258.446 190.480,254.394 191.222,252.560 188.466 C 252.042 187.686,251.998 187.416,251.998 185.031 L 251.998 182.442 259.190 182.383 C 264.599 182.338,266.425 182.254,266.558 182.045 C 266.811 181.647,266.775 173.278,266.512 171.461 C 265.662 165.585,259.594 162.247,252.343 163.668 M283.036 163.890 C 282.082 164.167,280.580 165.574,279.962 166.770 C 279.235 168.177,279.019 168.043,278.942 166.133 C 278.906 165.210,278.767 164.323,278.634 164.163 C 278.305 163.767,272.582 163.748,272.189 164.142 C 271.984 164.347,271.919 168.178,271.919 180.007 L 271.919 195.602 272.425 195.728 C 272.704 195.797,274.249 195.824,275.858 195.788 L 278.784 195.723 278.897 185.594 C 279.008 175.619,279.017 175.447,279.527 174.339 C 280.668 171.858,282.180 170.977,285.067 171.113 L 286.663 171.187 286.927 169.949 C 287.536 167.099,287.892 164.785,287.770 164.468 C 287.487 163.730,284.743 163.395,283.036 163.890 M315.559 163.871 C 311.093 165.003,308.718 168.095,308.727 172.763 C 308.737 177.860,310.527 179.966,317.138 182.657 C 322.039 184.652,323.163 185.791,322.695 188.288 C 321.945 192.287,315.477 191.565,314.924 187.422 L 314.800 186.494 311.649 186.494 L 308.497 186.494 308.512 188.182 C 308.595 198.043,326.929 199.298,329.414 189.613 C 330.837 184.068,328.167 180.384,320.547 177.380 C 315.843 175.526,314.204 173.220,315.792 170.690 C 317.657 167.720,322.791 169.120,322.791 172.598 C 322.791 173.667,323.096 173.776,326.073 173.776 C 329.495 173.776,329.504 173.769,329.131 171.372 C 328.633 168.171,326.870 165.826,323.953 164.488 C 322.327 163.742,317.475 163.386,315.559 163.871 M136.455 164.142 C 135.950 164.646,136.094 188.592,136.613 190.493 C 137.647 194.279,140.282 196.173,144.513 196.173 C 146.996 196.173,148.795 195.519,149.709 194.283 C 150.498 193.216,151.001 193.352,151.085 194.654 L 151.154 195.723 154.274 195.786 C 156.383 195.828,157.496 195.765,157.707 195.590 C 158.173 195.203,158.173 164.505,157.707 164.118 C 157.496 163.943,156.383 163.879,154.274 163.921 L 151.154 163.984 151.041 175.352 C 150.923 187.120,150.906 187.341,149.968 188.797 C 149.044 190.231,146.440 190.698,144.940 189.699 C 143.259 188.579,143.283 188.772,143.209 175.926 C 143.164 168.144,143.065 164.363,142.900 164.164 C 142.571 163.767,136.849 163.747,136.455 164.142 M230.884 169.985 C 231.320 170.250,231.836 170.895,232.190 171.619 L 232.775 172.815 232.707 180.122 L 232.639 187.428 232.011 188.377 C 230.097 191.268,226.031 190.652,225.108 187.331 C 224.779 186.144,224.799 173.290,225.132 172.178 C 225.883 169.671,228.639 168.620,230.884 169.985 M176.934 170.006 C 177.345 170.284,177.921 170.966,178.213 171.520 L 178.745 172.528 178.680 180.093 L 178.616 187.659 177.987 188.566 C 176.298 191.002,172.877 190.733,171.525 188.058 C 170.787 186.597,170.526 174.402,171.187 172.288 C 171.972 169.780,174.889 168.622,176.934 170.006 M258.194 170.293 C 259.356 171.406,259.764 172.638,259.764 175.038 C 259.764 177.584,260.079 177.419,255.374 177.330 L 251.998 177.265 251.934 174.894 C 251.861 172.157,252.298 170.944,253.703 169.986 C 254.872 169.189,257.208 169.348,258.194 170.293 " stroke="none" fill="#383e4a" fill-rule="evenodd"></path><path id="path1" d="M0.000 112.549 L 0.000 225.098 200.000 225.098 L 400.000 225.098 400.000 112.549 L 400.000 0.000 200.000 0.000 L 0.000 0.000 0.000 112.549 M171.412 26.982 C 172.032 27.205,173.905 28.258,175.577 29.321 C 177.248 30.385,180.540 32.448,182.893 33.906 C 194.433 41.059,194.456 40.612,182.173 48.072 C 180.263 49.232,177.664 50.840,174.917 52.562 C 171.151 54.922,169.747 55.337,167.288 54.820 C 165.620 54.469,165.794 54.567,156.669 48.847 C 154.131 47.257,150.961 45.274,149.626 44.441 C 145.089 41.610,144.845 40.002,148.607 37.706 C 149.389 37.229,151.345 36.008,152.954 34.992 C 156.905 32.500,163.809 28.180,164.733 27.623 C 166.611 26.491,169.327 26.230,171.412 26.982 M199.489 44.947 C 200.018 45.154,201.025 45.686,201.728 46.128 C 202.430 46.571,203.696 47.359,204.541 47.879 C 205.386 48.400,207.800 49.909,209.904 51.233 C 212.009 52.556,214.709 54.234,215.905 54.960 C 218.812 56.726,219.560 57.579,219.406 58.949 C 219.245 60.371,218.053 61.252,208.096 67.304 C 207.790 67.490,205.853 68.695,203.791 69.982 C 198.915 73.025,197.420 73.445,194.525 72.585 C 193.390 72.248,192.511 71.737,186.156 67.722 C 184.485 66.666,181.285 64.655,179.046 63.254 C 172.662 59.259,172.449 58.213,177.400 55.153 C 180.748 53.083,186.506 49.475,190.208 47.127 C 194.357 44.496,196.848 43.911,199.489 44.947 M251.885 47.998 C 252.591 48.756,252.583 48.584,252.513 61.227 L 252.448 73.044 251.703 74.418 C 250.488 76.656,249.588 77.323,241.193 82.193 C 230.519 88.387,230.480 88.405,229.059 87.757 C 227.785 87.177,227.775 87.064,227.846 74.341 L 227.912 62.690 228.534 61.424 C 229.877 58.690,230.112 58.510,239.055 53.333 C 250.269 46.842,250.658 46.680,251.885 47.998 M172.884 64.683 C 173.321 64.839,177.518 67.190,182.210 69.906 C 191.578 75.330,192.355 75.915,193.629 78.503 L 194.373 80.012 194.440 91.272 C 194.514 103.521,194.506 103.665,193.703 104.531 C 192.414 105.921,192.170 105.822,181.108 99.436 C 171.855 94.093,170.812 93.229,169.915 90.158 C 169.654 89.264,169.670 66.350,169.933 65.660 C 170.311 64.665,171.621 64.231,172.884 64.683 M223.004 65.147 L 223.635 65.690 223.635 77.921 L 223.635 90.152 223.002 91.354 C 221.821 93.597,220.670 94.562,215.982 97.243 C 215.611 97.456,214.294 98.217,213.056 98.936 C 197.730 107.835,198.942 108.479,199.036 91.493 L 199.100 79.797 199.759 78.447 C 200.443 77.047,202.442 74.891,203.621 74.282 C 203.981 74.097,207.669 71.980,211.817 69.579 C 221.478 63.986,221.599 63.938,223.004 65.147 M172.898 99.528 C 173.319 99.671,177.513 102.013,182.217 104.733 C 195.396 112.353,194.485 110.717,194.485 126.758 C 194.485 143.163,195.495 142.559,181.542 134.503 C 172.262 129.144,170.978 128.110,169.988 125.191 C 169.640 124.164,169.599 101.048,169.944 100.403 C 170.458 99.444,171.627 99.097,172.898 99.528 M75.813 151.986 C 76.349 152.523,76.187 195.539,75.648 195.828 C 75.408 195.956,73.933 196.061,72.369 196.061 C 70.805 196.061,69.330 195.956,69.090 195.828 C 68.551 195.539,68.389 152.523,68.925 151.986 C 69.110 151.802,70.201 151.716,72.369 151.716 C 74.538 151.716,75.629 151.802,75.813 151.986 M170.950 152.217 C 171.247 152.641,171.300 153.687,171.300 159.101 L 171.300 165.485 172.144 164.836 C 177.012 161.093,184.135 163.790,185.718 169.975 C 186.538 173.179,186.165 188.945,185.218 191.148 C 182.883 196.575,176.021 198.356,171.806 194.629 C 171.307 194.188,171.300 194.188,171.300 194.621 C 171.300 195.895,170.850 196.061,167.393 196.061 C 165.199 196.061,164.102 195.975,163.917 195.791 C 163.416 195.290,163.538 152.252,164.041 151.960 C 164.912 151.452,170.561 151.662,170.950 152.217 M194.921 151.934 C 195.296 152.134,195.650 152.958,198.185 159.539 C 201.032 166.929,200.820 166.545,201.308 165.184 C 201.818 163.759,204.508 156.658,205.428 154.305 C 206.467 151.649,206.349 151.716,210.004 151.719 C 213.357 151.723,214.069 151.829,214.069 152.325 C 214.069 152.635,211.439 158.870,206.993 169.097 C 204.707 174.358,204.788 173.690,206.085 176.590 C 206.836 178.268,211.835 189.797,212.381 191.109 C 212.716 191.913,213.170 192.977,213.390 193.472 C 214.517 196.009,214.454 196.061,210.257 196.061 C 206.357 196.061,206.481 196.123,205.549 193.697 C 203.300 187.841,202.790 186.493,202.016 184.356 C 201.545 183.056,201.090 181.910,201.005 181.810 C 200.863 181.642,199.421 185.152,196.629 192.459 C 195.201 196.195,195.394 196.061,191.440 196.061 C 187.886 196.061,187.507 195.992,187.507 195.345 C 187.507 194.996,189.949 189.174,193.037 182.161 C 195.299 177.026,196.511 174.143,196.511 173.900 C 196.511 173.681,194.883 169.747,193.687 167.079 C 193.152 165.885,192.823 165.127,190.538 159.820 C 189.338 157.034,188.166 154.326,187.932 153.801 C 187.060 151.843,187.264 151.716,191.281 151.716 C 193.060 151.716,194.697 151.814,194.921 151.934 M299.672 155.824 C 299.994 156.064,300.058 156.652,300.109 159.820 L 300.169 163.534 302.295 163.599 C 305.027 163.683,305.008 163.664,305.008 166.330 C 305.008 169.070,305.030 169.049,302.262 169.049 L 300.056 169.049 300.058 177.884 C 300.059 188.882,300.160 189.308,302.772 189.308 C 304.446 189.308,304.558 189.527,304.558 192.805 C 304.558 196.274,304.668 196.177,300.970 195.995 C 296.805 195.791,294.764 194.857,293.581 192.614 L 292.966 191.446 292.853 180.304 L 292.741 169.162 291.390 169.097 C 289.627 169.012,289.477 168.796,289.477 166.348 C 289.477 163.900,289.627 163.683,291.390 163.599 L 292.741 163.534 292.800 159.820 C 292.873 155.262,292.633 155.543,296.455 155.543 C 298.376 155.543,299.417 155.634,299.672 155.824 M99.517 163.824 C 101.535 164.708,102.801 166.221,103.809 168.954 C 104.485 170.786,104.752 195.047,104.104 195.695 C 103.558 196.241,97.668 196.236,97.214 195.689 C 96.964 195.388,96.883 193.073,96.792 183.590 C 96.685 172.414,96.659 171.829,96.236 171.149 C 94.900 169.002,91.482 169.294,90.264 171.658 L 89.702 172.750 89.630 184.119 C 89.583 191.662,89.479 195.585,89.321 195.775 C 88.996 196.167,82.822 196.181,82.431 195.791 C 82.040 195.400,82.040 164.307,82.431 163.917 C 82.616 163.732,83.711 163.647,85.893 163.647 C 89.409 163.647,89.674 163.743,89.638 165.005 C 89.615 165.827,89.664 165.828,90.682 165.028 C 93.071 163.151,96.817 162.641,99.517 163.824 M124.986 163.837 C 128.964 165.253,131.378 168.335,131.627 172.318 C 131.782 174.807,131.811 174.789,127.653 174.789 L 124.367 174.789 124.141 173.367 C 123.466 169.120,118.573 168.359,116.950 172.249 C 116.385 173.603,116.447 186.358,117.024 187.629 C 118.728 191.380,123.521 190.482,124.131 186.296 C 124.396 184.471,124.159 184.581,127.852 184.581 C 131.912 184.581,131.789 184.493,131.631 187.256 C 130.978 198.705,111.895 200.000,109.482 188.760 C 109.071 186.845,109.070 172.858,109.482 170.962 C 110.794 164.911,118.307 161.458,124.986 163.837 M234.976 163.965 C 237.595 165.304,239.259 167.762,239.731 170.990 C 240.230 174.405,239.933 188.920,239.330 190.537 C 237.243 196.139,231.161 198.241,226.337 195.030 L 225.211 194.280 225.151 200.723 C 225.111 205.018,225.008 207.266,224.842 207.466 C 224.506 207.871,218.118 207.898,217.715 207.496 C 217.250 207.031,217.332 164.467,217.799 164.000 C 218.087 163.712,218.744 163.647,221.355 163.647 C 224.767 163.647,225.098 163.743,225.098 164.732 C 225.098 165.255,225.119 165.263,225.605 164.913 C 228.243 163.014,232.310 162.603,234.976 163.965 M260.664 163.880 C 263.347 165.026,265.452 167.209,266.409 169.837 C 266.970 171.377,267.203 181.853,266.686 182.283 C 266.458 182.472,264.295 182.566,259.182 182.608 L 251.998 182.667 251.937 184.468 C 251.761 189.711,257.094 192.231,259.040 187.824 C 259.882 185.917,259.673 186.037,262.027 186.104 C 266.914 186.243,266.989 186.282,266.539 188.499 C 265.619 193.037,262.650 195.623,257.614 196.274 C 251.367 197.082,245.899 193.960,244.818 188.970 C 244.606 187.988,244.577 171.556,244.786 170.625 C 245.511 167.397,248.688 164.308,252.223 163.394 C 253.766 162.994,259.344 163.316,260.664 163.880 M323.016 163.924 C 326.971 165.190,329.531 168.530,329.542 172.437 C 329.545 173.932,329.399 174.001,326.220 174.001 C 323.036 174.001,322.568 173.849,322.561 172.811 C 322.543 170.205,319.730 168.494,317.393 169.668 C 315.581 170.579,315.003 172.941,316.207 174.510 C 316.883 175.391,317.298 175.627,321.378 177.455 C 328.040 180.440,329.881 182.568,329.881 187.282 C 329.881 198.915,308.873 199.923,308.201 188.322 C 308.064 185.952,308.094 185.931,311.692 185.931 C 314.882 185.931,315.363 186.155,315.363 187.641 C 315.363 190.860,320.657 191.801,322.184 188.853 C 323.376 186.552,322.116 185.018,317.463 183.104 C 310.437 180.213,308.176 177.525,308.436 172.373 C 308.790 165.386,315.478 161.510,323.016 163.924 M287.210 163.751 C 288.130 164.227,288.141 164.377,287.529 167.940 C 286.981 171.131,286.766 171.649,286.100 171.388 C 284.412 170.726,281.983 171.341,280.793 172.732 C 279.214 174.577,279.122 175.304,279.122 186.023 C 279.122 193.110,279.054 195.589,278.852 195.791 C 278.476 196.167,272.340 196.167,271.964 195.791 C 271.430 195.256,271.591 164.168,272.129 163.880 C 272.769 163.537,278.269 163.577,278.734 163.928 C 279.012 164.137,279.124 164.641,279.171 165.898 L 279.235 167.586 279.722 166.685 C 281.203 163.950,284.839 162.525,287.210 163.751 M143.001 163.928 C 143.340 164.183,143.381 165.291,143.438 175.689 C 143.500 187.105,143.503 187.175,144.011 188.205 C 145.306 190.834,148.717 190.636,150.219 187.845 C 150.694 186.962,150.705 186.718,150.775 175.468 C 150.828 166.945,150.915 163.949,151.112 163.823 C 151.518 163.565,157.313 163.614,157.809 163.880 C 158.421 164.207,158.500 195.098,157.891 195.707 C 157.603 195.995,156.953 196.061,154.418 196.061 C 150.904 196.061,150.591 195.938,150.591 194.561 L 150.591 193.768 149.478 194.769 C 145.446 198.394,138.166 196.240,136.360 190.887 C 135.867 189.428,135.839 164.291,136.330 163.933 C 136.870 163.538,142.476 163.534,143.001 163.928 M227.343 170.006 C 225.181 171.098,225.034 171.812,225.137 180.754 C 225.232 188.955,225.601 189.871,228.813 189.871 C 232.085 189.871,232.396 189.054,232.483 180.230 C 232.569 171.445,232.307 170.472,229.650 169.734 C 228.524 169.422,228.491 169.426,227.343 170.006 M173.136 170.106 C 172.721 170.310,172.139 170.862,171.841 171.334 L 171.300 172.191 171.300 179.762 C 171.300 187.002,171.320 187.369,171.765 188.152 C 173.396 191.019,177.283 190.469,178.368 187.218 C 178.882 185.680,178.897 174.182,178.387 172.523 C 177.639 170.082,175.335 169.022,173.136 170.106 M254.024 170.143 C 252.485 171.094,251.885 172.499,251.885 175.155 L 251.885 176.927 255.741 176.927 L 259.598 176.927 259.493 174.575 C 259.314 170.556,256.737 168.467,254.024 170.143 " stroke="none" fill="#fbfbfb" fill-rule="evenodd"></path><path id="path2" d="M249.747 47.903 C 249.499 47.956,248.527 48.444,247.586 48.986 C 246.646 49.528,245.803 49.972,245.713 49.972 C 245.624 49.972,245.109 50.276,244.569 50.647 C 244.030 51.019,243.535 51.322,243.470 51.322 C 243.357 51.322,237.657 54.615,235.791 55.759 C 235.295 56.062,234.165 56.734,233.278 57.251 C 231.115 58.513,230.011 59.579,229.113 61.275 L 228.362 62.690 228.304 74.282 C 228.241 86.873,228.227 86.713,229.487 87.318 C 230.310 87.712,231.669 87.289,233.755 85.988 C 235.277 85.038,239.342 82.716,241.418 81.609 C 241.913 81.346,242.722 80.855,243.215 80.520 C 243.708 80.184,244.196 79.910,244.299 79.910 C 244.402 79.910,244.819 79.657,245.225 79.347 C 245.631 79.038,246.041 78.784,246.137 78.784 C 247.109 78.784,250.504 75.873,251.101 74.528 C 251.298 74.084,251.631 73.416,251.841 73.044 C 252.454 71.961,252.422 49.339,251.807 48.659 C 251.313 48.113,250.373 47.768,249.747 47.903 M218.683 66.146 C 217.569 66.743,216.303 67.436,215.869 67.686 C 213.743 68.916,212.504 69.666,211.442 70.365 C 210.802 70.786,210.217 71.131,210.143 71.131 C 210.069 71.131,208.342 72.100,206.306 73.285 C 202.343 75.589,201.077 76.696,200.074 78.733 L 199.550 79.797 199.488 91.466 C 199.404 107.076,199.096 106.544,205.923 102.570 C 207.448 101.683,208.967 100.781,209.300 100.566 C 209.632 100.351,210.107 100.084,210.355 99.972 C 210.602 99.860,211.593 99.301,212.556 98.730 C 213.519 98.160,214.398 97.693,214.509 97.693 C 214.621 97.693,214.846 97.563,215.009 97.405 C 215.173 97.246,216.320 96.541,217.558 95.837 C 220.269 94.296,221.918 92.705,222.749 90.827 L 223.347 89.477 223.460 80.810 C 223.674 64.257,223.457 63.591,218.683 66.146 " stroke="none" fill="#f27424" fill-rule="evenodd"></path><path id="path3" d="M166.309 26.877 C 165.854 27.039,165.145 27.375,164.733 27.623 C 163.809 28.180,156.905 32.500,152.954 34.992 C 151.345 36.008,149.389 37.229,148.607 37.706 C 145.573 39.558,145.207 41.917,147.745 43.259 C 148.010 43.399,147.797 43.081,147.271 42.552 C 145.325 40.596,145.926 39.597,150.857 36.589 C 152.877 35.356,155.340 33.829,156.331 33.193 C 165.961 27.019,165.992 27.003,168.593 26.909 C 170.375 26.844,171.865 27.312,173.905 28.578 C 176.898 30.436,178.316 31.329,180.079 32.465 C 181.007 33.064,183.688 34.741,186.035 36.193 C 188.972 38.007,190.464 39.069,190.819 39.595 C 191.113 40.031,191.334 40.207,191.334 40.006 C 191.334 39.340,190.054 38.376,185.013 35.247 C 182.237 33.524,179.460 31.790,178.841 31.393 C 171.057 26.404,169.353 25.789,166.309 26.877 M190.845 41.860 C 190.502 42.460,189.071 43.483,185.369 45.777 C 184.626 46.237,181.739 48.044,178.953 49.791 C 171.114 54.709,171.372 54.586,168.797 54.586 C 166.734 54.586,166.555 54.546,165.026 53.748 C 163.153 52.769,162.937 52.787,164.560 53.785 C 167.740 55.742,170.330 55.436,174.917 52.562 C 177.664 50.840,180.263 49.232,182.173 48.072 C 188.964 43.948,191.522 42.086,191.299 41.430 C 191.256 41.305,191.052 41.499,190.845 41.860 M148.452 43.617 C 148.689 43.869,149.633 44.467,156.556 48.752 C 158.908 50.207,160.985 51.517,161.171 51.661 C 161.356 51.805,161.913 52.152,162.409 52.430 L 163.309 52.937 162.641 52.413 C 161.799 51.752,158.680 49.765,153.067 46.313 C 148.137 43.281,148.136 43.281,148.452 43.617 M194.564 44.742 C 194.421 44.833,195.456 44.907,196.864 44.907 C 198.271 44.907,199.249 44.838,199.036 44.754 C 198.510 44.546,194.886 44.536,194.564 44.742 M192.009 46.050 C 190.282 47.098,188.098 48.455,183.767 51.171 C 182.419 52.016,179.902 53.587,178.173 54.662 C 171.820 58.611,171.982 58.990,182.893 65.666 C 186.185 67.680,186.120 67.643,185.557 67.160 C 185.023 66.702,182.700 65.207,178.116 62.374 C 172.061 58.631,172.079 58.601,186.044 50.057 C 187.406 49.224,189.381 47.984,190.433 47.302 C 191.486 46.620,192.752 45.829,193.247 45.544 C 193.742 45.258,194.046 45.025,193.922 45.026 C 193.799 45.026,192.938 45.487,192.009 46.050 M199.775 45.190 C 199.899 45.298,201.621 46.387,203.602 47.611 C 205.582 48.834,207.862 50.256,208.666 50.770 C 209.471 51.285,210.383 51.837,210.692 51.997 C 211.002 52.158,212.217 52.913,213.393 53.674 C 214.569 54.436,216.194 55.485,217.003 56.005 C 220.660 58.355,220.174 59.526,213.956 63.357 C 212.099 64.501,209.617 66.061,208.441 66.825 C 207.265 67.588,206.151 68.281,205.965 68.364 C 205.779 68.448,204.513 69.216,203.151 70.071 C 199.845 72.148,199.588 72.270,198.057 72.486 C 195.289 72.877,194.440 72.584,189.645 69.581 C 187.681 68.350,186.009 67.418,186.269 67.698 C 186.892 68.371,193.483 72.276,194.510 72.581 C 197.421 73.445,198.908 73.029,203.791 69.982 C 205.853 68.695,207.790 67.490,208.096 67.304 C 218.053 61.252,219.245 60.371,219.406 58.949 C 219.560 57.579,218.812 56.726,215.905 54.960 C 214.709 54.234,212.009 52.556,209.904 51.233 C 207.800 49.909,205.386 48.400,204.541 47.879 C 203.696 47.359,202.430 46.571,201.728 46.128 C 200.495 45.351,199.305 44.779,199.775 45.190 M170.858 64.792 C 170.433 65.020,170.043 65.336,169.990 65.495 C 169.937 65.654,170.203 65.555,170.581 65.275 C 171.741 64.418,172.706 64.699,176.815 67.088 C 178.796 68.240,182.696 70.486,185.481 72.080 C 191.069 75.277,192.460 76.430,193.561 78.774 L 194.147 80.023 194.147 91.915 L 194.147 103.807 193.412 104.464 C 193.008 104.825,192.785 105.121,192.917 105.121 C 193.345 105.121,194.247 103.959,194.379 103.237 C 194.450 102.849,194.477 97.465,194.440 91.272 L 194.373 80.012 193.629 78.503 C 192.355 75.915,191.578 75.330,182.210 69.906 C 172.081 64.042,172.177 64.085,170.858 64.792 M199.092 91.953 C 199.092 98.391,199.121 100.992,199.156 97.733 C 199.191 94.475,199.191 89.207,199.156 86.028 C 199.120 82.849,199.092 85.515,199.092 91.953 M169.955 90.216 C 169.943 90.835,171.111 92.747,172.137 93.787 C 173.145 94.808,189.643 104.636,189.907 104.372 C 189.987 104.292,186.565 102.278,176.505 96.483 C 173.039 94.487,171.527 93.156,170.634 91.314 C 170.264 90.551,169.958 90.057,169.955 90.216 M170.799 99.619 C 170.169 99.961,169.720 100.587,169.729 101.111 C 169.732 101.274,169.895 101.082,170.090 100.685 C 171.125 98.588,171.634 98.794,185.481 106.930 C 187.524 108.130,189.513 109.275,189.902 109.473 C 191.077 110.073,192.620 111.800,193.405 113.395 L 194.147 114.902 194.217 125.825 C 194.294 137.780,194.256 138.460,193.464 139.252 C 192.305 140.411,192.081 140.316,181.349 134.101 C 173.776 129.716,172.593 128.907,171.229 127.181 C 170.887 126.747,170.707 126.603,170.828 126.861 C 171.855 129.032,189.618 140.011,192.104 140.011 C 194.464 140.011,194.485 139.896,194.485 126.758 C 194.485 110.717,195.396 112.353,182.217 104.733 C 172.231 98.959,172.113 98.906,170.799 99.619 M190.326 104.649 C 190.447 104.767,190.850 104.936,191.221 105.024 C 192.092 105.231,191.897 105.039,190.889 104.698 C 190.458 104.553,190.205 104.530,190.326 104.649 M170.072 125.436 C 170.156 125.715,170.318 126.042,170.431 126.163 C 170.544 126.284,170.523 126.056,170.384 125.656 C 170.099 124.838,169.835 124.653,170.072 125.436 M68.925 151.986 C 68.389 152.523,68.551 195.539,69.090 195.828 C 69.330 195.956,70.805 196.061,72.369 196.061 C 73.933 196.061,75.408 195.956,75.648 195.828 C 76.187 195.539,76.349 152.523,75.813 151.986 C 75.629 151.802,74.538 151.716,72.369 151.716 C 70.201 151.716,69.110 151.802,68.925 151.986 M164.041 151.960 C 163.538 152.252,163.416 195.290,163.917 195.791 C 164.102 195.975,165.199 196.061,167.393 196.061 C 170.850 196.061,171.300 195.895,171.300 194.621 C 171.300 194.190,171.310 194.190,171.806 194.637 C 172.085 194.888,172.465 195.168,172.651 195.258 C 172.836 195.349,172.634 195.114,172.200 194.736 C 171.248 193.905,170.997 193.945,170.850 194.953 L 170.737 195.723 167.617 195.786 C 165.508 195.828,164.395 195.765,164.184 195.590 C 163.922 195.372,163.872 191.900,163.872 173.889 C 163.872 155.878,163.922 152.405,164.184 152.188 C 164.395 152.012,165.508 151.949,167.617 151.991 L 170.737 152.054 170.850 158.788 C 170.967 165.780,171.030 166.174,171.879 165.171 L 172.313 164.660 171.806 165.088 L 171.300 165.517 171.300 159.117 C 171.300 151.044,171.643 151.714,167.517 151.723 C 165.821 151.727,164.257 151.833,164.041 151.960 M187.777 151.986 C 187.408 152.356,187.436 152.688,187.932 153.801 C 188.166 154.326,189.246 156.808,190.331 159.316 C 191.416 161.824,192.340 163.840,192.385 163.796 C 192.429 163.752,191.397 161.200,190.091 158.125 C 188.784 155.050,187.767 152.401,187.829 152.238 C 187.916 152.011,188.728 151.941,191.292 151.941 C 194.867 151.941,195.063 152.000,195.474 153.180 C 196.095 154.968,197.714 158.917,197.792 158.839 C 197.979 158.652,195.380 152.277,195.004 151.998 C 194.483 151.612,188.162 151.602,187.777 151.986 M206.583 151.998 C 206.381 152.153,205.764 153.444,205.212 154.868 C 203.179 160.114,202.129 163.037,202.240 163.148 C 202.302 163.210,202.402 163.120,202.462 162.947 C 202.658 162.381,205.529 154.782,206.000 153.582 C 206.638 151.956,206.622 151.963,210.257 151.885 L 213.506 151.816 210.229 151.766 C 207.887 151.731,206.846 151.797,206.583 151.998 M75.746 173.776 L 75.746 195.498 72.369 195.498 L 68.993 195.498 68.931 174.226 C 68.897 162.527,68.925 152.724,68.993 152.442 C 69.116 151.934,69.146 151.930,72.431 151.992 L 75.746 152.054 75.746 173.776 M213.741 152.225 C 213.801 152.381,212.228 156.298,210.246 160.929 C 208.263 165.561,206.676 169.385,206.718 169.427 C 206.883 169.591,214.069 152.840,214.069 152.293 C 214.069 152.100,213.971 151.941,213.851 151.941 C 213.731 151.941,213.682 152.069,213.741 152.225 M293.237 155.824 C 292.915 156.064,292.851 156.652,292.800 159.820 L 292.741 163.534 291.336 163.601 C 289.565 163.685,289.434 163.898,289.534 166.518 L 289.609 168.486 289.655 166.432 C 289.710 164.018,289.782 163.923,291.623 163.828 L 292.966 163.759 293.025 160.045 C 293.098 155.511,292.892 155.768,296.455 155.768 C 300.017 155.768,299.812 155.511,299.884 160.045 L 299.944 163.759 302.195 163.821 C 303.983 163.870,304.503 163.960,304.727 164.258 C 304.882 164.464,305.008 164.525,305.008 164.392 C 305.008 163.862,304.324 163.662,302.295 163.599 L 300.169 163.534 300.109 159.820 C 300.036 155.262,300.276 155.543,296.455 155.543 C 294.534 155.543,293.492 155.634,293.237 155.824 M197.994 159.595 C 198.076 159.904,198.286 160.411,198.461 160.720 L 198.778 161.283 198.630 160.720 C 198.548 160.411,198.338 159.904,198.163 159.595 L 197.845 159.032 197.994 159.595 M198.891 161.846 C 198.974 162.155,199.135 162.560,199.250 162.746 C 199.395 162.981,199.413 162.912,199.308 162.521 C 199.225 162.212,199.064 161.806,198.949 161.621 C 198.804 161.386,198.786 161.455,198.891 161.846 M93.754 163.393 C 92.828 163.637,91.662 164.258,90.682 165.028 C 89.664 165.828,89.615 165.827,89.638 165.005 C 89.674 163.743,89.409 163.647,85.893 163.647 C 83.711 163.647,82.616 163.732,82.431 163.917 C 82.040 164.307,82.040 195.400,82.431 195.791 C 82.822 196.181,88.996 196.167,89.321 195.775 C 89.479 195.585,89.583 191.662,89.630 184.119 L 89.702 172.750 90.264 171.658 C 91.179 169.883,93.252 169.198,95.059 170.073 L 95.779 170.422 95.248 169.960 C 93.865 168.760,91.131 169.585,90.039 171.534 L 89.477 172.538 89.409 184.012 C 89.358 192.620,89.274 195.529,89.071 195.657 C 88.610 195.950,82.960 195.870,82.656 195.566 C 82.341 195.250,82.262 164.641,82.576 164.147 C 82.713 163.930,83.558 163.874,86.005 163.922 L 89.252 163.984 89.323 164.885 C 89.423 166.152,89.645 166.255,90.516 165.437 C 92.269 163.790,95.391 163.112,98.481 163.707 C 99.216 163.849,99.302 163.833,98.947 163.618 C 98.427 163.302,94.706 163.141,93.754 163.393 M117.727 163.335 C 113.544 164.117,110.319 167.100,109.482 170.962 C 109.070 172.858,109.071 186.845,109.482 188.760 C 110.080 191.545,113.209 195.385,114.879 195.385 C 114.998 195.385,114.497 194.998,113.766 194.525 C 111.500 193.058,110.358 191.437,109.738 188.808 C 109.252 186.746,109.257 172.939,109.745 170.869 C 111.277 164.370,118.728 161.590,126.393 164.658 C 126.720 164.789,126.780 164.769,126.612 164.585 C 125.784 163.680,120.134 162.884,117.727 163.335 M175.014 163.404 C 174.008 163.686,172.700 164.285,172.546 164.535 C 172.471 164.655,172.996 164.480,173.712 164.144 C 175.600 163.259,178.897 163.263,180.818 164.152 C 181.534 164.483,182.062 164.660,181.991 164.545 C 181.426 163.630,176.865 162.885,175.014 163.404 M199.570 163.647 C 199.651 163.956,199.861 164.463,200.036 164.772 L 200.354 165.335 200.205 164.772 C 200.123 164.463,199.913 163.956,199.739 163.647 L 199.421 163.084 199.570 163.647 M228.475 163.393 C 227.803 163.615,226.310 164.405,225.605 164.913 C 225.119 165.263,225.098 165.255,225.098 164.732 C 225.098 163.743,224.767 163.647,221.355 163.647 C 218.744 163.647,218.087 163.712,217.799 164.000 C 217.332 164.467,217.250 207.031,217.715 207.496 C 217.901 207.681,219.016 207.766,221.272 207.766 C 223.528 207.766,224.643 207.681,224.828 207.496 C 225.026 207.298,225.098 205.479,225.098 200.715 L 225.098 194.205 225.605 194.568 C 226.625 195.300,226.990 195.396,226.224 194.731 C 224.841 193.531,224.873 193.394,224.873 200.432 C 224.873 208.408,225.316 207.541,221.247 207.541 L 217.893 207.541 217.950 185.763 L 218.008 163.984 221.272 163.984 L 224.536 163.984 224.751 164.716 C 225.015 165.613,225.095 165.616,226.263 164.770 C 229.882 162.148,235.823 163.322,238.121 167.114 C 239.478 169.354,239.560 169.950,239.670 178.454 C 239.814 189.546,239.490 191.358,236.897 193.972 C 236.134 194.742,235.706 195.266,235.948 195.136 C 239.176 193.409,239.951 190.460,239.953 179.897 C 239.956 169.756,239.628 168.041,237.233 165.635 C 235.223 163.616,231.044 162.546,228.475 163.393 M252.155 163.407 C 251.015 163.695,250.988 163.915,252.119 163.713 C 253.388 163.487,257.975 163.480,259.313 163.702 C 260.162 163.844,260.253 163.826,259.876 163.596 C 259.341 163.269,253.286 163.121,252.155 163.407 M316.826 163.422 C 311.739 164.077,308.691 167.329,308.436 172.373 C 308.176 177.525,310.437 180.213,317.463 183.104 C 322.116 185.018,323.376 186.552,322.184 188.853 C 320.657 191.801,315.363 190.860,315.363 187.641 C 315.363 186.155,314.882 185.931,311.692 185.931 C 308.094 185.931,308.064 185.952,308.201 188.322 C 308.373 191.283,310.376 194.163,312.944 195.139 C 313.899 195.502,313.680 195.270,312.374 194.533 C 309.855 193.111,308.535 190.941,308.512 188.182 L 308.497 186.494 311.649 186.494 L 314.800 186.494 314.924 187.422 C 315.477 191.564,321.945 192.286,322.695 188.288 C 323.163 185.791,322.039 184.652,317.138 182.657 C 310.527 179.966,308.737 177.860,308.727 172.763 C 308.715 166.687,312.053 163.764,319.008 163.761 C 320.951 163.760,322.369 163.697,322.159 163.622 C 321.458 163.368,318.192 163.246,316.826 163.422 M201.591 164.350 C 201.386 164.861,201.271 165.331,201.335 165.394 C 201.446 165.505,201.674 165.011,202.011 163.928 C 202.278 163.072,201.984 163.367,201.591 164.350 M282.611 163.794 C 281.620 164.314,280.279 165.656,279.722 166.685 L 279.235 167.586 279.171 165.898 C 279.124 164.641,279.012 164.137,278.734 163.928 C 278.269 163.577,272.769 163.537,272.129 163.880 C 271.591 164.168,271.430 195.256,271.964 195.791 C 272.340 196.167,278.476 196.167,278.852 195.791 C 279.055 195.587,279.109 193.177,279.070 186.055 L 279.017 176.590 278.901 186.156 L 278.784 195.723 275.858 195.788 C 274.249 195.824,272.704 195.797,272.425 195.728 L 271.919 195.602 271.919 180.007 C 271.919 168.178,271.984 164.347,272.189 164.142 C 272.582 163.748,278.305 163.767,278.634 164.163 C 278.767 164.323,278.906 165.210,278.942 166.133 C 279.019 168.043,279.235 168.177,279.962 166.770 C 280.612 165.513,282.089 164.169,283.142 163.877 C 285.026 163.354,287.530 163.733,287.800 164.583 C 287.878 164.829,287.986 164.987,288.039 164.934 C 289.119 163.854,284.389 162.861,282.611 163.794 M136.353 163.890 C 135.985 164.105,135.963 164.920,136.014 176.657 L 136.068 189.195 136.128 176.836 C 136.170 168.166,136.263 164.386,136.439 164.174 C 136.792 163.749,142.548 163.740,142.900 164.164 C 143.065 164.363,143.164 168.144,143.209 175.926 C 143.272 186.873,143.296 187.435,143.725 188.292 C 145.166 191.164,149.625 190.793,150.453 187.732 C 150.563 187.324,150.485 187.386,150.169 187.957 C 148.685 190.640,145.278 190.777,144.011 188.205 C 143.503 187.175,143.500 187.105,143.438 175.689 C 143.381 165.291,143.340 164.183,143.001 163.928 C 142.538 163.580,136.940 163.548,136.353 163.890 M151.112 163.823 C 150.914 163.949,150.828 166.953,150.775 175.506 C 150.736 181.839,150.754 186.969,150.816 186.907 C 150.878 186.845,150.979 181.662,151.041 175.389 L 151.154 163.984 154.274 163.921 C 156.383 163.879,157.496 163.943,157.707 164.118 C 157.968 164.334,158.019 166.930,158.019 179.854 C 158.019 192.778,157.968 195.373,157.707 195.590 C 157.496 195.765,156.383 195.828,154.274 195.786 L 151.154 195.723 151.085 194.654 C 151.001 193.352,150.498 193.216,149.709 194.283 C 148.953 195.306,147.043 196.097,144.870 196.287 C 143.123 196.440,143.103 196.448,144.386 196.479 C 146.433 196.528,148.170 195.945,149.478 194.769 L 150.591 193.768 150.591 194.561 C 150.591 195.938,150.904 196.061,154.418 196.061 C 156.953 196.061,157.603 195.995,157.891 195.707 C 158.500 195.098,158.421 164.207,157.809 163.880 C 157.313 163.614,151.518 163.565,151.112 163.823 M99.494 163.980 C 99.494 164.039,99.873 164.282,100.338 164.521 C 101.487 165.110,102.058 165.770,103.001 167.602 C 103.443 168.460,103.733 168.908,103.646 168.599 C 103.081 166.584,99.494 162.593,99.494 163.980 M249.687 164.450 C 247.331 165.625,245.166 168.419,244.807 170.751 C 244.694 171.485,244.744 171.416,245.099 170.354 C 245.969 167.747,247.898 165.441,249.979 164.521 C 250.532 164.276,250.985 164.030,250.985 163.974 C 250.985 163.813,250.915 163.838,249.687 164.450 M261.588 164.568 C 263.146 165.414,264.699 166.966,265.620 168.599 C 266.004 169.280,266.249 169.584,266.163 169.274 C 265.709 167.634,263.166 164.966,261.272 164.145 C 260.139 163.653,260.301 163.870,261.588 164.568 M324.275 164.639 C 327.016 166.002,328.649 168.274,329.135 171.397 C 329.503 173.765,329.489 173.776,326.073 173.776 C 323.096 173.776,322.791 173.667,322.791 172.598 C 322.791 169.120,317.657 167.720,315.792 170.690 C 314.212 173.206,315.835 175.512,320.484 177.359 C 321.511 177.766,324.486 179.109,324.908 179.355 C 325.020 179.420,325.047 179.368,324.968 179.241 C 324.889 179.113,323.531 178.428,321.951 177.718 C 317.434 175.689,316.866 175.373,316.207 174.512 C 315.003 172.939,315.581 170.579,317.393 169.668 C 319.730 168.494,322.543 170.205,322.561 172.811 C 322.568 173.849,323.036 174.001,326.220 174.001 C 329.399 174.001,329.545 173.932,329.542 172.437 C 329.532 168.688,326.718 164.917,323.241 163.994 C 322.932 163.912,323.397 164.202,324.275 164.639 M192.588 164.547 C 192.669 164.856,192.825 165.206,192.935 165.324 C 193.256 165.667,193.157 165.174,192.779 164.547 L 192.440 163.984 192.588 164.547 M128.642 166.423 C 130.489 168.302,131.138 169.699,131.347 172.251 C 131.537 174.577,131.619 174.524,127.821 174.545 L 124.596 174.564 124.455 173.430 C 123.886 168.828,117.659 167.930,116.716 172.313 C 116.591 172.894,116.631 172.863,117.008 172.088 C 118.823 168.349,123.472 169.192,124.142 173.382 L 124.367 174.789 127.653 174.789 C 131.819 174.789,131.783 174.812,131.625 172.284 C 131.475 169.874,130.400 167.517,128.814 166.121 C 127.041 164.560,126.956 164.708,128.642 166.423 M183.198 165.785 C 183.736 166.404,184.325 167.198,184.507 167.550 C 184.690 167.902,184.894 168.136,184.961 168.069 C 185.213 167.816,183.675 165.753,182.669 164.997 C 182.423 164.811,182.661 165.166,183.198 165.785 M200.433 165.747 C 200.504 165.974,200.563 166.202,200.563 166.254 C 200.563 166.305,200.715 166.348,200.900 166.348 C 201.086 166.348,201.236 166.171,201.235 165.954 C 201.232 165.644,201.189 165.626,201.036 165.868 C 200.878 166.118,200.789 166.096,200.572 165.756 C 200.320 165.360,200.312 165.360,200.433 165.747 M287.494 166.816 C 287.121 168.876,287.197 169.513,287.585 167.586 C 287.760 166.719,287.871 165.858,287.832 165.672 C 287.794 165.487,287.641 166.002,287.494 166.816 M193.144 165.701 C 193.123 165.999,193.842 167.516,193.952 167.406 C 194.015 167.343,193.862 166.901,193.611 166.425 C 193.360 165.949,193.150 165.624,193.144 165.701 M194.035 167.784 C 194.035 167.846,194.592 169.189,195.273 170.767 C 196.767 174.233,196.769 173.571,195.256 177.028 C 194.566 178.605,194.043 179.937,194.093 179.987 C 194.221 180.115,196.736 174.282,196.736 173.858 C 196.736 173.550,196.178 172.171,194.909 169.343 C 194.676 168.823,194.485 168.297,194.485 168.174 C 194.485 168.051,194.384 167.887,194.260 167.811 C 194.136 167.734,194.035 167.722,194.035 167.784 M304.563 168.481 C 304.343 168.746,303.772 168.824,302.055 168.824 L 299.831 168.824 299.831 178.025 C 299.831 189.314,299.812 189.243,303.014 189.703 L 304.221 189.876 304.284 192.737 L 304.347 195.599 303.746 195.749 C 303.146 195.900,299.516 195.742,298.030 195.501 C 297.308 195.384,297.289 195.394,297.805 195.624 C 298.653 196.001,303.462 196.181,304.065 195.859 C 304.532 195.609,304.558 195.446,304.558 192.805 C 304.558 189.527,304.446 189.308,302.772 189.308 C 300.160 189.308,300.059 188.882,300.058 177.884 L 300.056 169.049 302.280 169.049 C 304.358 169.049,305.437 168.727,304.960 168.250 C 304.898 168.188,304.719 168.292,304.563 168.481 M185.059 168.374 C 185.054 168.436,185.248 169.246,185.491 170.174 C 185.865 171.604,185.912 171.691,185.797 170.738 C 185.689 169.834,185.094 167.930,185.059 168.374 M289.881 168.868 C 289.968 168.954,290.647 169.055,291.390 169.093 L 292.741 169.162 292.853 180.304 L 292.966 191.446 293.641 192.677 C 294.327 193.926,295.599 195.006,296.680 195.255 C 297.059 195.342,296.978 195.256,296.432 194.991 C 295.414 194.496,294.641 193.858,294.184 193.134 C 293.222 191.613,293.205 191.412,293.083 179.966 L 292.966 168.936 291.344 168.824 C 290.452 168.762,289.794 168.782,289.881 168.868 M227.462 169.606 C 226.393 169.988,225.489 170.987,225.132 172.178 C 224.799 173.290,224.779 186.144,225.108 187.331 C 226.031 190.652,230.097 191.268,232.011 188.377 L 232.639 187.428 232.707 180.122 L 232.775 172.815 232.190 171.619 C 231.264 169.726,229.374 168.921,227.462 169.606 M286.874 170.235 C 286.679 171.114,286.611 171.183,285.988 171.136 C 285.371 171.090,285.357 171.104,285.819 171.298 C 286.586 171.620,286.951 171.358,287.119 170.367 C 287.324 169.150,287.137 169.049,286.874 170.235 M103.948 170.625 C 104.036 171.306,104.108 177.181,104.108 183.680 L 104.108 195.498 100.685 195.560 L 97.262 195.622 97.195 184.193 C 97.155 177.229,97.041 172.570,96.904 172.269 C 96.753 171.936,96.701 175.548,96.744 183.407 C 96.798 193.249,96.860 195.117,97.143 195.550 C 97.587 196.227,103.450 196.349,104.104 195.695 C 104.578 195.221,104.537 170.625,104.061 169.837 C 103.837 169.466,103.817 169.605,103.948 170.625 M172.873 170.006 C 172.055 170.563,171.145 171.670,171.343 171.869 C 171.413 171.938,171.670 171.654,171.916 171.238 C 173.427 168.676,177.365 169.399,178.393 172.425 C 178.679 173.270,178.717 173.311,178.619 172.676 C 178.209 170.010,175.035 168.535,172.873 170.006 M229.650 169.734 C 232.307 170.472,232.569 171.445,232.483 180.230 C 232.396 189.054,232.085 189.871,228.813 189.871 C 225.601 189.871,225.232 188.955,225.137 180.754 C 225.034 171.812,225.181 171.098,227.343 170.006 C 228.491 169.426,228.524 169.422,229.650 169.734 M253.775 169.914 C 252.971 170.419,252.205 171.559,252.012 172.538 C 251.909 173.060,251.957 173.011,252.224 172.323 C 253.304 169.537,256.494 168.796,258.439 170.878 C 258.796 171.260,259.088 171.481,259.088 171.368 C 259.088 169.964,255.332 168.936,253.775 169.914 M206.227 170.297 C 205.850 171.124,205.922 171.301,206.329 170.548 C 206.520 170.197,206.634 169.867,206.582 169.816 C 206.531 169.764,206.371 169.981,206.227 170.297 M266.421 170.400 C 266.623 171.201,266.823 181.074,266.651 181.759 L 266.508 182.330 259.322 182.330 C 255.370 182.330,252.090 182.406,252.032 182.499 C 251.850 182.793,266.332 182.577,266.689 182.280 C 267.108 181.933,266.985 171.288,266.553 170.400 L 266.279 169.837 266.421 170.400 M205.507 171.888 C 205.373 172.245,205.120 172.825,204.946 173.176 C 204.655 173.764,204.683 173.924,205.300 175.202 C 205.977 176.603,205.989 176.466,205.339 174.756 C 205.003 173.871,205.011 173.762,205.477 172.639 C 205.748 171.987,205.921 171.406,205.861 171.346 C 205.801 171.286,205.642 171.530,205.507 171.888 M281.113 172.144 C 280.111 173.048,279.120 174.882,279.137 175.802 C 279.143 176.147,279.314 175.843,279.578 175.014 C 280.073 173.460,281.107 172.094,282.129 171.647 C 282.566 171.455,282.686 171.330,282.443 171.318 C 282.227 171.308,281.628 171.680,281.113 172.144 M259.492 174.553 L 259.598 176.927 255.728 176.927 C 253.206 176.927,251.907 177.006,251.998 177.153 C 252.148 177.396,258.797 177.475,259.408 177.241 C 259.801 177.090,259.940 173.051,259.572 172.471 C 259.470 172.311,259.434 173.248,259.492 174.553 M170.986 172.781 C 170.775 173.333,170.857 186.436,171.075 186.944 C 171.188 187.208,171.275 184.298,171.284 179.910 C 171.299 172.637,171.274 172.031,170.986 172.781 M244.527 173.889 C 244.528 174.631,244.570 174.908,244.620 174.504 C 244.670 174.099,244.669 173.491,244.618 173.153 C 244.566 172.815,244.525 173.146,244.527 173.889 M116.476 179.854 C 116.476 183.630,116.507 185.174,116.544 183.286 C 116.582 181.398,116.582 178.309,116.544 176.421 C 116.507 174.533,116.476 176.078,116.476 179.854 M186.031 179.854 C 186.031 183.630,186.062 185.174,186.100 183.286 C 186.137 181.398,186.137 178.309,186.100 176.421 C 186.062 174.533,186.031 176.078,186.031 179.854 M205.975 176.871 C 205.987 177.097,206.844 178.655,206.856 178.474 C 206.872 178.241,206.193 176.702,206.075 176.702 C 206.014 176.702,205.969 176.778,205.975 176.871 M206.881 178.841 C 206.881 178.965,207.026 179.319,207.203 179.629 C 207.380 179.938,207.525 180.090,207.525 179.966 C 207.525 179.842,207.380 179.488,207.203 179.178 C 207.026 178.869,206.881 178.717,206.881 178.841 M325.830 179.884 C 330.588 183.497,331.098 190.265,326.880 193.816 C 326.426 194.198,326.266 194.409,326.525 194.284 C 331.281 191.997,330.878 182.475,325.911 179.781 L 325.155 179.372 325.830 179.884 M193.485 181.095 C 192.999 182.258,193.064 182.389,193.611 181.352 C 193.862 180.876,194.015 180.434,193.952 180.371 C 193.888 180.307,193.678 180.633,193.485 181.095 M207.613 180.593 C 207.693 180.814,209.142 184.234,210.834 188.194 C 212.526 192.154,213.870 195.434,213.821 195.483 C 213.739 195.565,208.336 195.687,207.143 195.633 C 206.497 195.605,206.442 195.475,201.844 183.282 C 201.598 182.630,201.357 182.136,201.309 182.184 C 201.261 182.231,201.848 183.930,202.613 185.958 C 203.378 187.986,204.386 190.658,204.853 191.896 C 206.582 196.482,206.026 196.061,210.345 196.061 C 214.443 196.061,214.515 195.999,213.389 193.472 C 213.168 192.977,212.585 191.609,212.094 190.433 C 210.690 187.069,207.743 180.430,207.599 180.305 C 207.528 180.242,207.534 180.372,207.613 180.593 M200.563 181.636 C 200.563 181.750,200.505 182.028,200.435 182.255 C 200.352 182.521,200.416 182.485,200.615 182.154 C 200.785 181.871,201.011 181.720,201.117 181.816 C 201.223 181.913,201.237 181.866,201.148 181.711 C 200.960 181.384,200.563 181.333,200.563 181.636 M192.691 182.876 C 192.356 183.756,192.422 183.894,192.823 183.154 C 193.014 182.803,193.114 182.459,193.046 182.391 C 192.978 182.323,192.818 182.541,192.691 182.876 M199.924 183.255 C 199.480 184.440,199.470 184.861,199.908 183.942 C 200.163 183.404,200.317 182.909,200.249 182.841 C 200.181 182.773,200.035 182.959,199.924 183.255 M189.799 189.639 C 186.772 196.609,186.632 196.061,191.440 196.061 C 195.394 196.061,195.202 196.195,196.629 192.459 C 197.220 190.912,198.096 188.643,198.575 187.417 C 199.053 186.192,199.405 185.148,199.355 185.099 C 199.306 185.050,198.443 187.116,197.438 189.691 C 196.433 192.266,195.480 194.626,195.321 194.935 C 195.009 195.542,187.732 195.982,187.732 195.394 C 187.732 195.269,188.753 192.776,190.000 189.853 C 191.247 186.931,192.228 184.499,192.179 184.451 C 192.130 184.402,191.059 186.737,189.799 189.639 M124.409 184.890 C 124.344 185.060,124.219 185.693,124.131 186.296 C 123.521 190.482,118.728 191.380,117.024 187.629 C 116.797 187.129,116.609 186.862,116.606 187.037 C 116.595 187.740,117.770 189.321,118.628 189.758 C 121.227 191.085,124.036 189.387,124.427 186.253 L 124.593 184.918 127.578 184.856 C 131.557 184.772,131.556 184.771,131.387 187.137 C 131.315 188.145,131.193 189.223,131.116 189.533 C 130.990 190.041,131.003 190.054,131.247 189.668 C 131.649 189.032,131.815 185.349,131.461 184.923 C 131.064 184.444,124.592 184.414,124.409 184.890 M259.674 186.446 C 259.502 186.720,259.302 187.198,259.230 187.507 C 259.159 187.817,259.264 187.690,259.463 187.226 L 259.825 186.382 262.645 186.382 C 266.130 186.382,266.126 186.262,262.633 186.083 C 260.076 185.952,259.978 185.964,259.674 186.446 M178.303 187.392 C 177.404 190.437,173.379 190.924,171.772 188.182 C 171.518 187.749,171.308 187.506,171.305 187.643 C 171.294 188.159,172.353 189.436,173.105 189.814 C 175.339 190.936,178.149 189.561,178.640 187.105 C 178.851 186.049,178.649 186.221,178.303 187.392 M266.267 186.566 C 266.499 186.729,266.547 187.098,266.449 187.990 C 266.336 189.025,266.349 189.088,266.542 188.440 C 266.833 187.462,266.719 186.553,266.292 186.438 C 266.011 186.363,266.007 186.384,266.267 186.566 M251.904 186.761 C 251.876 187.159,252.330 188.263,252.466 188.127 C 252.530 188.063,252.434 187.669,252.253 187.252 C 252.071 186.835,251.914 186.614,251.904 186.761 M244.699 188.182 C 244.678 188.677,245.146 190.269,245.275 190.141 C 245.335 190.080,245.234 189.539,245.049 188.938 C 244.864 188.337,244.707 187.997,244.699 188.182 M258.099 188.976 C 256.631 190.272,254.942 190.300,253.391 189.053 C 252.724 188.518,252.595 188.469,252.825 188.839 C 253.913 190.593,256.862 190.612,258.511 188.878 C 259.380 187.965,259.194 188.009,258.099 188.976 M185.404 189.830 C 185.308 190.303,185.183 190.860,185.127 191.068 C 185.071 191.276,185.183 191.105,185.377 190.687 C 185.571 190.269,185.696 189.712,185.655 189.449 C 185.602 189.116,185.526 189.232,185.404 189.830 M136.310 190.194 C 136.469 191.532,137.645 193.684,138.641 194.458 C 140.103 195.593,140.136 195.496,138.751 194.137 C 137.435 192.845,137.163 192.358,136.434 189.983 C 136.194 189.199,136.193 189.200,136.310 190.194 M266.084 189.491 C 266.002 190.851,263.505 194.044,261.831 194.927 C 261.375 195.168,261.108 195.370,261.239 195.376 C 262.657 195.435,266.690 190.651,266.215 189.474 C 266.130 189.264,266.098 189.268,266.084 189.491 M130.545 190.914 C 130.380 191.310,129.632 192.292,128.882 193.096 C 128.132 193.899,127.730 194.445,127.988 194.308 C 128.992 193.775,131.294 190.645,130.941 190.292 C 130.887 190.238,130.709 190.518,130.545 190.914 M245.596 191.019 C 245.554 191.804,247.919 194.195,249.472 194.936 C 250.442 195.400,250.340 195.312,248.584 194.175 C 247.707 193.606,246.752 192.552,245.877 191.189 C 245.730 190.959,245.603 190.882,245.596 191.019 M184.268 192.549 C 182.766 195.113,180.026 196.422,176.546 196.240 C 175.470 196.183,174.786 196.214,175.027 196.308 C 178.113 197.516,182.999 195.433,184.716 192.178 C 185.239 191.186,184.904 191.464,184.268 192.549 M126.618 194.870 C 126.246 195.072,125.385 195.421,124.705 195.646 C 123.627 196.002,123.582 196.039,124.354 195.927 C 125.183 195.807,127.406 194.836,127.406 194.594 C 127.406 194.446,127.386 194.453,126.618 194.870 M325.211 194.839 C 324.871 195.024,324.592 195.213,324.592 195.259 C 324.592 195.452,325.498 195.088,325.738 194.798 C 326.060 194.410,325.991 194.416,325.211 194.839 M115.363 195.577 C 115.487 195.700,115.993 195.861,116.488 195.935 C 117.092 196.025,117.240 196.004,116.939 195.873 C 116.140 195.526,115.118 195.334,115.363 195.577 M140.349 195.569 C 140.473 195.698,140.878 195.868,141.249 195.947 C 141.716 196.045,141.820 196.024,141.587 195.877 C 141.039 195.533,140.087 195.296,140.349 195.569 M173.225 195.585 C 173.342 195.695,173.692 195.851,174.001 195.932 L 174.564 196.080 174.001 195.740 C 173.374 195.363,172.881 195.264,173.225 195.585 M227.248 195.595 C 227.366 195.710,227.766 195.867,228.137 195.943 C 228.810 196.083,228.810 196.082,228.055 195.734 C 227.191 195.336,226.940 195.293,227.248 195.595 M234.102 195.785 C 233.558 196.036,232.640 196.152,231.130 196.160 C 228.880 196.174,228.732 196.467,230.960 196.495 C 232.248 196.511,234.727 195.975,235.104 195.599 C 235.416 195.288,235.024 195.361,234.102 195.785 M250.781 195.609 C 250.979 195.725,251.587 195.873,252.132 195.939 L 253.123 196.058 251.998 195.726 C 250.714 195.347,250.258 195.304,250.781 195.609 M259.539 195.723 C 258.836 195.927,258.698 196.020,259.088 196.029 C 259.398 196.035,259.955 195.901,260.326 195.731 C 261.171 195.344,260.857 195.341,259.539 195.723 M314.034 195.609 C 314.232 195.725,314.839 195.873,315.385 195.939 L 316.376 196.058 315.250 195.726 C 313.966 195.347,313.511 195.304,314.034 195.609 M322.904 195.747 L 322.003 196.062 322.904 195.928 C 323.841 195.789,324.824 195.382,324.142 195.416 C 323.956 195.425,323.399 195.574,322.904 195.747 M118.289 196.300 C 119.177 196.483,122.167 196.587,121.985 196.430 C 121.933 196.385,120.878 196.296,119.640 196.232 C 118.178 196.156,117.705 196.180,118.289 196.300 M253.517 196.216 C 253.734 196.273,254.088 196.273,254.305 196.216 C 254.522 196.159,254.344 196.113,253.911 196.113 C 253.478 196.113,253.301 196.159,253.517 196.216 M257.234 196.220 C 257.514 196.274,257.919 196.272,258.134 196.215 C 258.350 196.159,258.120 196.115,257.625 196.118 C 257.130 196.120,256.954 196.166,257.234 196.220 M255.205 196.445 C 255.484 196.498,255.940 196.498,256.218 196.445 C 256.497 196.391,256.269 196.347,255.712 196.347 C 255.155 196.347,254.927 196.391,255.205 196.445 M318.458 196.449 C 318.860 196.499,319.519 196.499,319.921 196.449 C 320.324 196.399,319.994 196.358,319.190 196.358 C 318.385 196.358,318.056 196.399,318.458 196.449 " stroke="none" fill="#9fa2a0" fill-rule="evenodd"></path><path id="path4" d="M248.621 47.906 C 248.250 48.130,247.389 48.607,246.708 48.965 C 246.027 49.323,245.208 49.792,244.888 50.008 C 244.568 50.224,242.593 51.378,240.499 52.573 C 230.470 58.295,230.076 58.590,228.513 61.551 L 227.912 62.690 227.849 74.282 C 227.779 87.144,227.771 87.062,229.253 87.766 C 230.467 88.343,231.573 87.781,247.385 78.539 C 249.753 77.155,250.645 76.256,251.657 74.235 L 252.572 72.407 252.510 60.494 L 252.448 48.582 251.816 48.039 C 251.039 47.370,249.606 47.310,248.621 47.906 M251.807 48.659 C 252.422 49.339,252.454 71.961,251.841 73.044 C 251.631 73.416,251.298 74.084,251.101 74.528 C 250.504 75.873,247.109 78.784,246.137 78.784 C 246.041 78.784,245.631 79.038,245.225 79.347 C 244.819 79.657,244.402 79.910,244.299 79.910 C 244.196 79.910,243.708 80.184,243.215 80.520 C 242.722 80.855,241.913 81.346,241.418 81.609 C 239.342 82.716,235.277 85.038,233.755 85.988 C 231.669 87.289,230.310 87.712,229.487 87.318 C 228.227 86.713,228.241 86.873,228.304 74.282 L 228.362 62.690 229.113 61.275 C 230.011 59.579,231.115 58.513,233.278 57.251 C 234.165 56.734,235.295 56.062,235.791 55.759 C 237.657 54.615,243.357 51.322,243.470 51.322 C 243.535 51.322,244.030 51.019,244.569 50.647 C 245.109 50.276,245.624 49.972,245.713 49.972 C 245.803 49.972,246.646 49.528,247.586 48.986 C 249.961 47.617,250.805 47.552,251.807 48.659 M220.259 64.882 C 219.887 65.017,217.406 66.385,214.744 67.925 C 212.082 69.464,208.293 71.651,206.323 72.784 C 202.296 75.102,200.955 76.269,199.906 78.368 L 199.212 79.757 199.212 91.662 C 199.212 107.428,198.931 106.974,206.143 102.836 C 208.160 101.678,210.347 100.428,211.003 100.056 C 220.805 94.511,221.719 93.841,222.974 91.277 L 223.635 89.927 223.699 78.289 C 223.754 68.401,223.713 66.531,223.429 65.851 C 222.943 64.689,221.780 64.333,220.259 64.882 M222.707 65.343 C 223.343 65.808,223.589 70.862,223.460 80.810 L 223.347 89.477 222.749 90.827 C 221.918 92.705,220.269 94.296,217.558 95.837 C 216.320 96.541,215.173 97.246,215.009 97.405 C 214.846 97.563,214.621 97.693,214.509 97.693 C 214.398 97.693,213.519 98.160,212.556 98.730 C 211.593 99.301,210.602 99.860,210.355 99.972 C 210.107 100.084,209.632 100.351,209.300 100.566 C 208.129 101.322,203.142 104.188,202.331 104.570 C 201.256 105.077,200.497 104.868,199.900 103.903 C 199.431 103.145,199.426 102.998,199.488 91.466 L 199.550 79.797 200.074 78.733 C 201.077 76.696,202.343 75.589,206.306 73.285 C 208.342 72.100,210.069 71.131,210.143 71.131 C 210.217 71.131,210.802 70.786,211.442 70.365 C 212.082 69.943,213.163 69.271,213.844 68.870 C 220.165 65.151,221.642 64.564,222.707 65.343 " stroke="none" fill="#cb8e5c" fill-rule="evenodd"></path></g></svg>